<svg height="511pt" viewBox="0 1 511 511.99898" width="511pt" xmlns="http://www.w3.org/2000/svg">

	<path d="m498.722656 198.242188-61.527344-6.285157c-2.222656-6.273437-4.777343-12.4375-7.640624-18.441406l39.066406-47.953125c4.96875-6.097656 4.515625-14.964844-1.046875-20.527344l-60.109375-60.109375c-5.5625-5.5625-14.429688-6.011719-20.527344-1.042969l-40.28125 32.816407c-4.59375 3.742187-10.964844 4.609375-16.636719 2.25l-.359375-.148438c-5.640625-2.332031-9.519531-7.4375-10.121094-13.332031l-5.28125-51.691406c-.800781-7.828125-7.386718-13.777344-15.253906-13.777344h-85.007812c-7.867188 0-14.457032 5.949219-15.253906 13.777344l-5.28125 51.691406c-.601563 5.894531-4.480469 11-10.152344 13.34375l-.34375.140625c-5.660156 2.351563-12.027344 1.484375-16.617188-2.253906l-40.285156-32.820313c-6.097656-4.964844-14.964844-4.515625-20.527344 1.046875l-60.109375 60.109375c-5.5625 5.5625-6.015625 14.429688-1.046875 20.527344l32.816406 40.285156c3.742188 4.59375 4.609376 10.960938 2.269532 16.59375l-.167969.398438c-2.328125 5.640625-7.4375 9.519531-13.332031 10.121094l-51.691406 5.28125c-7.824219.796874-13.773438 7.386718-13.773438 15.253906v85.007812c0 7.867188 5.949219 14.457032 13.773438 15.253906l51.695312 5.28125c5.890625.601563 11 4.480469 13.332031 10.132813l.152344.363281c2.351563 5.65625 1.484375 12.023438-2.257813 16.617188l-32.816406 40.285156c-4.96875 6.097656-4.515625 14.964844 1.046875 20.527344l60.109375 60.109375c5.5625 5.5625 14.425782 6.011719 20.527344 1.046875l40.28125-32.820313c4.59375-3.742187 10.960938-4.605469 16.617188-2.257812l.378906.15625c5.640625 2.332031 9.519531 7.4375 10.121094 13.332031l5.277343 51.691406c.800781 7.824219 7.390625 13.777344 15.253907 13.777344h85.011718c7.863282 0 14.453125-5.953125 15.253906-13.777344l5.277344-51.691406c.601563-5.894531 4.480469-11 10.132813-13.335938l.367187-.148437c5.65625-2.355469 12.023438-1.488281 16.617188 2.253906l40.28125 32.820313c6.097656 4.964844 14.96875 4.515625 20.527344-1.046875l60.113281-60.109375c5.558593-5.5625 6.011719-14.429688 1.042969-20.527344l-32.816407-40.285156c-3.742187-4.59375-4.605469-10.960938-2.25-16.636719l.148438-.355469c2.332031-5.640625 7.4375-9.519531 13.332031-10.121094l51.691406-5.28125c7.824219-.796874 13.773438-7.386718 13.773438-15.253906v-85.007812c.003906-7.867188-5.949219-14.457032-13.773438-15.253906zm-16.890625 86.414062-37.914062 3.871094c-17.140625 1.753906-31.917969 12.835937-38.558594 28.917968l-.132813.324219c-6.6875 16.097657-4.082031 34.394531 6.800782 47.753907l24.070312 29.546874-40.527344 40.527344-29.546874-24.070312c-13.359376-10.882813-31.65625-13.488282-47.730469-6.8125l-.335938.140625c-16.09375 6.644531-27.175781 21.417969-28.925781 38.558593l-3.875 37.917969h-57.3125l-3.875-37.914062c-1.75-17.144531-12.832031-31.917969-28.894531-38.546875l-.347657-.148438c-16.09375-6.683594-34.390624-4.078125-47.75 6.804688l-29.546874 24.070312-40.527344-40.527344 24.070312-29.546874c10.882813-13.359376 13.488282-31.65625 6.808594-47.730469l-.136719-.335938c-6.644531-16.09375-21.421875-27.175781-38.5625-28.929687l-37.914062-3.871094v-57.3125l37.914062-3.871094c17.140625-1.753906 31.917969-12.835937 38.554688-28.917968l.136719-.324219c6.6875-16.097657 4.082031-34.394531-6.800782-47.75l-24.070312-29.550781 40.527344-40.527344 29.546874 24.074218c13.359376 10.878907 31.65625 13.484376 47.75 6.800782l.316407-.132813c16.089843-6.644531 27.175781-21.417969 28.925781-38.558593l3.875-37.917969h57.3125l3.875 37.914062c1.75 17.140625 12.832031 31.917969 28.914062 38.558594l.328126.136719c16.09375 6.683594 34.390624 4.078125 47.75-6.804688l29.546874-24.070312 40.527344 40.527344-36.632812 44.96875c-3.9375 4.832031-4.558594 11.566406-1.570313 17.035156 5.464844 10 9.867188 20.628906 13.085938 31.585937 1.757812 5.976563 6.957031 10.296875 13.15625 10.929688l57.695312 5.894531zm0 0"/>

	<path d="m288.777344 217.589844-44.304688 44.300781-20.242187-20.242187c-5.988281-5.988282-15.699219-5.988282-21.6875 0-5.988281 5.984374-5.988281 15.695312 0 21.683593l31.085937 31.085938c2.996094 2.996093 6.917969 4.492187 10.84375 4.492187 3.921875 0 7.847656-1.5 10.839844-4.492187l55.144531-55.144531c5.988281-5.988282 5.988281-15.695313 0-21.683594-5.984375-5.988282-15.691406-5.988282-21.679687 0zm0 0"/>

	<path d="m256.503906 133.496094c-67.550781 0-122.507812 54.957031-122.507812 122.507812 0 67.550782 54.957031 122.511719 122.507812 122.511719 67.550782 0 122.507813-54.960937 122.507813-122.511719 0-67.550781-54.957031-122.507812-122.507813-122.507812zm0 214.351562c-50.640625 0-91.84375-41.203125-91.84375-91.84375 0-50.644531 41.203125-91.84375 91.84375-91.84375s91.839844 41.199219 91.839844 91.84375c0 50.640625-41.199219 91.84375-91.839844 91.84375zm0 0"/>
</svg>