<?xml version="1.0" encoding="iso-8859-1"?>
<!-- Generator: Adobe Illustrator 19.0.0, SVG Export Plug-In . SVG Version: 6.00 Build 0)  -->
<svg version="1.1" id="Capa_1" xmlns="http://www.w3.org/2000/svg" xmlns:xlink="http://www.w3.org/1999/xlink" x="0px" y="0px"
	 viewBox="0 0 403.88 403.88" style="enable-background:new 0 0 403.88 403.88;" xml:space="preserve">
<g>
	<g>
		<g>
			<path d="M114.2,263.02c28.907,6.251,58.427,9.216,88,8.84c29.573,0.376,59.093-2.589,88-8.84c25.44-6.16,41.16-16,41.16-27.68
				c0-118.64-37.32-147.28-74.68-147.28c-24.88,0.04-48.92,13.16-62,20.28c-3.28,1.8-5.76,3.16-6.92,3.56
				c-7.68,2.88-18.6,1.2-30.04-0.56c-8.147-1.478-16.401-2.294-24.68-2.44c-32.28,0.28-60.92,19.08-60,126.44
				C73.04,247.34,88.76,256.9,114.2,263.02z"/>
			<path d="M380.96,235.18c-12.545-5.911-25.705-10.419-39.24-13.44v13.6c0,23.28-31.08,33.68-49.32,38.08
				c-29.657,6.499-59.962,9.572-90.32,9.16c-30.411,0.425-60.771-2.649-90.48-9.16c-18.24-4.4-49.52-14.8-49.52-38.08
				c0-0.24,0-0.48,0-0.68c0-4,0-8.48,0-12.88c-13.508,3.025-26.641,7.532-39.16,13.44C8.24,242.62,0,251.58,0,261.82
				c0,16.68,24,30.8,62.44,40c36,8.64,85.08,14,139.36,14c54.28,0,103.84-5.32,139.64-13.84c38.6-9.32,62.44-23.44,62.44-40
				C403.88,251.58,395.68,242.58,380.96,235.18z"/>
		</g>
	</g>
</g>
<g>
</g>
<g>
</g>
<g>
</g>
<g>
</g>
<g>
</g>
<g>
</g>
<g>
</g>
<g>
</g>
<g>
</g>
<g>
</g>
<g>
</g>
<g>
</g>
<g>
</g>
<g>
</g>
<g>
</g>
</svg>
