<?xml version="1.0" standalone="no"?>
<!DOCTYPE svg PUBLIC "-//W3C//DTD SVG 20010904//EN"
 "http://www.w3.org/TR/2001/REC-SVG-20010904/DTD/svg10.dtd">
<svg version="1.0" xmlns="http://www.w3.org/2000/svg"
 width="1200.000000pt" height="1200.000000pt" viewBox="0 0 1200.000000 1200.000000"
 preserveAspectRatio="xMidYMid meet">
<metadata>
Created by potrace 1.16, written by Peter Selinger 2001-2019
</metadata>
<g transform="translate(0.000000,1200.000000) scale(0.100000,-0.100000)"
fill="#000000" stroke="none">
<path d="M5670 10974 c-8 -2 -71 -8 -140 -14 -69 -5 -136 -12 -150 -15 -96
-20 -156 -26 -311 -30 -163 -4 -229 -13 -229 -32 0 -18 -80 -42 -155 -48 -100
-8 -146 -20 -174 -44 -12 -10 -41 -22 -66 -25 -24 -4 -59 -18 -78 -30 -19 -13
-51 -30 -71 -37 -20 -7 -36 -17 -36 -21 0 -5 -21 -19 -47 -31 -27 -12 -68 -36
-93 -53 -25 -17 -74 -46 -110 -63 -36 -18 -76 -42 -90 -55 -41 -36 -129 -142
-141 -170 -7 -14 -16 -26 -21 -26 -4 0 -8 -7 -8 -15 0 -9 -7 -18 -15 -21 -9
-4 -25 -25 -36 -48 -21 -42 -48 -89 -86 -147 -13 -19 -23 -42 -23 -51 0 -9
-16 -37 -35 -62 -21 -28 -35 -58 -35 -74 0 -27 -21 -103 -40 -147 -5 -11 -9
-38 -8 -60 1 -22 -4 -62 -10 -90 -6 -27 -19 -81 -27 -120 -9 -38 -21 -92 -26
-120 -7 -43 -26 -101 -54 -168 -6 -13 -3 -16 9 -11 21 8 20 -5 -4 -68 -13 -34
-18 -64 -14 -88 3 -20 0 -81 -6 -135 -7 -55 -14 -138 -15 -185 -2 -47 -8 -123
-14 -170 -12 -94 -6 -565 10 -740 12 -138 28 -345 31 -392 0 -21 5 -38 10 -38
4 0 8 -8 8 -17 0 -22 -47 -28 -70 -10 -24 19 -80 49 -80 43 0 -10 38 -45 43
-39 9 8 47 -22 47 -38 0 -8 14 -28 31 -45 55 -53 63 -82 66 -263 2 -165 -1
-195 -19 -170 -7 10 -8 8 -3 -6 9 -27 23 -160 35 -335 6 -80 13 -165 17 -189
l5 -43 -21 21 c-27 27 -47 18 -26 -12 8 -12 15 -28 15 -37 0 -8 9 -31 19 -51
15 -27 21 -66 26 -170 4 -84 12 -146 22 -167 10 -23 14 -59 12 -118 -3 -84 -3
-84 36 -136 l39 -52 -3 -91 c-1 -50 4 -117 12 -150 8 -36 11 -84 8 -120 -3
-33 -1 -100 6 -150 7 -49 15 -111 17 -136 3 -25 15 -86 26 -135 11 -49 25
-115 30 -147 13 -74 35 -128 119 -295 64 -129 103 -210 139 -292 8 -19 19 -43
23 -52 5 -10 9 -53 9 -95 0 -43 5 -94 11 -113 6 -19 10 -56 9 -82 0 -25 4 -49
10 -53 6 -3 10 4 11 17 0 13 3 17 6 10 4 -10 8 -9 17 4 9 11 18 14 27 9 7 -5
24 -10 38 -11 13 -2 38 -17 55 -33 18 -17 37 -31 44 -31 7 0 12 -5 12 -11 0
-12 12 -24 63 -62 20 -16 37 -37 37 -48 0 -10 5 -19 11 -19 6 0 29 -16 50 -35
22 -19 44 -35 49 -35 6 0 10 -7 10 -15 0 -8 16 -30 35 -49 19 -20 35 -42 35
-51 0 -9 12 -18 29 -21 17 -4 32 -13 35 -21 3 -8 10 -11 16 -8 5 3 8 0 5 -7
-8 -21 50 -75 88 -82 19 -4 40 -13 47 -21 7 -8 21 -15 32 -15 13 0 18 -5 15
-14 -3 -8 1 -17 9 -20 16 -6 19 -36 4 -36 -6 0 -3 -11 6 -25 9 -14 20 -22 26
-19 5 3 4 12 -4 22 -12 14 -10 14 17 7 17 -4 40 -8 52 -9 12 -1 28 -7 35 -14
6 -6 18 -12 26 -12 8 0 28 -7 45 -16 18 -9 40 -21 51 -26 10 -6 35 -12 55 -14
44 -6 78 -11 161 -23 36 -5 112 -10 170 -11 58 0 123 0 145 -1 22 0 65 -3 95
-6 94 -10 342 -11 395 -1 173 32 279 66 363 118 26 16 62 36 79 44 45 20 98
60 163 123 30 29 71 67 90 86 19 18 123 123 230 233 108 109 212 213 230 231
58 54 92 101 78 106 -9 4 -9 6 2 6 36 3 42 19 55 152 14 142 24 174 106 344
22 44 39 87 39 96 0 8 4 19 9 25 8 9 14 26 75 214 55 167 86 288 152 590 18
81 31 112 62 148 13 15 23 44 27 80 3 31 10 77 15 102 8 34 39 289 40 320 0 3
20 32 45 65 51 68 53 75 25 75 -36 0 -37 33 -10 275 6 50 14 124 19 166 7 67
13 83 51 135 65 90 212 244 234 244 7 0 25 -9 39 -20 l26 -21 7 27 c6 22 2 32
-20 51 -15 13 -35 23 -46 23 -21 0 -187 -171 -227 -236 -31 -47 -53 -57 -54
-21 -2 92 3 200 13 241 16 63 70 119 131 137 44 13 57 11 51 -5 -4 -11 3 -15
28 -15 76 -1 88 -5 82 -26 -4 -16 -3 -17 5 -5 7 10 11 11 11 3 0 -7 5 -13 10
-13 19 0 10 19 -24 53 -32 32 -90 55 -152 59 -20 2 -21 4 -8 53 8 27 14 73 14
102 0 47 16 113 40 168 16 37 19 69 25 249 3 99 9 185 13 190 4 6 7 99 7 208
1 142 4 200 14 211 9 12 10 25 0 59 -7 25 -9 72 -6 113 4 39 2 95 -3 125 -5
30 -15 86 -21 124 -8 49 -9 82 -1 114 9 39 7 50 -14 91 -12 26 -24 67 -25 91
-2 25 -7 48 -12 52 -14 9 -18 56 -6 64 6 4 5 14 -4 27 -8 12 -17 40 -21 62 -4
22 -13 49 -19 60 -6 11 -13 31 -15 45 -2 14 -7 29 -13 35 -5 5 -9 24 -9 42 0
21 -8 40 -22 53 -17 16 -23 32 -23 66 0 24 -3 44 -7 44 -5 0 -8 6 -8 14 0 8
-9 21 -20 29 -14 10 -21 30 -26 80 -6 59 -12 74 -60 139 -30 40 -61 96 -70
123 -9 28 -25 64 -35 80 -10 17 -21 50 -25 74 -4 24 -15 51 -26 60 -10 8 -37
47 -61 86 -38 63 -132 166 -201 220 -14 11 -51 44 -83 73 -32 29 -74 60 -93
69 -19 9 -48 29 -64 44 -15 15 -40 30 -55 34 -14 4 -40 17 -58 31 -17 13 -36
24 -42 24 -5 0 -36 13 -68 29 -86 43 -151 71 -167 71 -7 0 -19 7 -26 15 -7 8
-18 15 -24 15 -6 0 -36 14 -66 30 -30 16 -73 38 -95 48 -55 26 -299 80 -415
92 -89 9 -487 12 -520 4z m112 -1404 c14 15 27 19 56 17 22 -2 44 -7 51 -11 6
-4 21 -4 34 0 28 10 68 5 86 -9 11 -9 15 -9 18 1 8 22 23 13 24 -15 l0 -28 10
25 c8 19 12 21 18 11 5 -7 14 -10 20 -7 6 4 11 2 11 -3 0 -21 19 -11 22 11 3
21 4 21 21 4 13 -14 21 -15 31 -7 18 15 88 4 104 -17 10 -14 14 -14 21 -4 7
12 12 12 32 0 13 -7 27 -17 30 -22 4 -4 16 -5 27 -2 11 4 23 2 27 -4 10 -16
28 -12 21 5 -6 16 19 21 28 6 6 -9 79 -22 151 -26 22 -2 64 -8 94 -14 38 -8
58 -8 67 0 15 12 98 -13 126 -38 16 -14 18 -14 24 1 8 22 17 20 29 -6 7 -16
17 -22 34 -20 38 4 88 -17 105 -43 10 -15 22 -22 31 -19 19 8 82 -32 90 -57 5
-16 9 -18 21 -8 11 9 18 9 26 1 9 -9 7 -12 -7 -12 -19 -1 -19 -1 -2 -15 11 -7
26 -11 34 -8 9 3 16 -2 19 -14 3 -11 21 -26 40 -33 19 -8 34 -20 34 -27 0 -7
6 -13 13 -13 8 0 19 -11 25 -25 6 -14 19 -25 27 -25 12 0 15 -6 10 -19 -7 -22
32 -64 52 -57 7 3 15 1 18 -4 4 -6 1 -10 -6 -10 -7 0 -9 -10 -6 -29 3 -15 1
-33 -6 -40 -6 -6 -8 -12 -4 -12 4 -1 12 -3 17 -4 6 -1 17 -3 25 -4 8 0 18 -13
21 -28 4 -15 13 -34 20 -41 7 -7 11 -19 8 -27 -4 -8 -1 -15 6 -15 7 0 10 -7 6
-15 -3 -8 -1 -15 4 -15 6 0 10 -8 10 -17 0 -9 8 -25 18 -36 12 -15 14 -21 5
-24 -14 -5 -18 -43 -5 -43 14 0 32 -49 32 -87 0 -20 7 -45 17 -55 14 -16 14
-18 0 -18 -8 0 -18 6 -20 13 -3 7 -6 5 -6 -5 -1 -10 8 -22 19 -28 10 -6 17
-16 14 -23 -2 -7 2 -27 11 -43 11 -22 12 -30 2 -33 -26 -9 -36 -38 -37 -101 0
-41 4 -60 9 -51 5 7 14 10 21 6 9 -6 9 -9 0 -15 -9 -6 -9 -12 0 -30 6 -12 9
-28 6 -36 -3 -8 0 -14 6 -14 7 0 7 -4 -1 -14 -16 -19 5 -32 24 -16 8 7 15 9
15 5 0 -10 -40 -45 -52 -45 -4 0 -8 -7 -8 -15 0 -8 6 -15 14 -15 15 0 30 -79
19 -106 -5 -14 -8 -13 -19 7 -13 24 -13 23 -15 -11 -2 -47 2 -74 10 -80 4 -3
8 -15 8 -28 2 -33 -21 -22 -25 11 -2 15 -7 25 -12 22 -5 -3 -7 -12 -4 -20 6
-16 -11 -37 -38 -48 -21 -8 -24 -37 -4 -37 8 0 17 -7 20 -16 10 -27 -2 -29
-23 -5 -16 18 -23 20 -40 12 -11 -6 -26 -8 -35 -5 -11 4 -13 0 -9 -18 6 -20 4
-21 -9 -11 -8 7 -18 10 -22 6 -4 -4 3 -15 16 -25 13 -10 18 -18 12 -18 -6 0
-22 10 -35 21 -33 30 -145 80 -162 73 -8 -3 -18 -1 -22 5 -3 6 -15 11 -25 11
-10 0 -21 6 -23 13 -4 10 -6 10 -6 0 -1 -7 8 -22 19 -33 11 -11 16 -20 12 -20
-4 0 -13 5 -19 11 -8 8 -17 7 -33 -3 -18 -10 -24 -10 -27 0 -8 21 -32 14 -26
-8 4 -14 0 -20 -11 -20 -16 0 -20 -11 -17 -39 2 -7 -4 -11 -11 -9 -7 3 -13 10
-13 16 0 6 -18 21 -40 32 -45 23 -49 24 -40 10 3 -5 1 -10 -5 -10 -6 0 -20 -9
-32 -20 -17 -16 -24 -17 -36 -8 -8 7 -36 13 -63 13 -39 0 -48 -3 -44 -15 4
-12 -5 -14 -48 -12 -28 2 -56 8 -62 13 -12 12 -72 11 -80 -1 -3 -5 5 -15 19
-22 29 -12 36 -34 9 -23 -10 4 -40 10 -68 13 -46 5 -49 4 -36 -11 12 -15 10
-17 -24 -17 l-37 0 23 -20 c26 -21 20 -26 -11 -10 -21 11 -53 3 -44 -11 7 -12
-1 -11 -47 3 -30 9 -44 8 -62 -1 -13 -7 -27 -11 -33 -10 -5 1 -18 1 -29 -1
l-20 -1 20 -9 c16 -6 12 -8 -17 -8 -21 1 -46 -6 -55 -14 -10 -9 -28 -19 -40
-22 -29 -9 -52 -36 -29 -36 19 0 21 -11 4 -28 -9 -9 -8 -12 5 -12 9 0 17 -4
17 -10 0 -5 -6 -10 -12 -10 -10 0 -10 -2 0 -9 8 -4 14 -12 15 -17 2 -10 31
-10 65 1 18 6 21 4 16 -9 -5 -13 0 -16 25 -16 33 0 34 -1 25 -24 -3 -8 -12
-12 -20 -9 -8 3 -14 0 -14 -6 0 -6 14 -11 30 -11 23 0 30 -5 30 -19 0 -20 -18
-41 -113 -126 -37 -33 -67 -65 -67 -72 0 -7 -4 -13 -8 -13 -12 0 -43 -70 -37
-81 4 -5 1 -9 -4 -9 -6 0 -11 -9 -11 -20 0 -11 4 -20 10 -20 10 0 36 40 33 51
-1 4 7 15 17 24 11 10 20 26 20 37 0 10 6 18 13 18 7 0 18 9 25 20 7 11 18 20
26 20 7 0 21 9 31 20 10 11 24 20 32 20 7 0 13 4 13 8 0 9 67 41 99 47 11 2
29 8 40 14 26 14 31 14 31 -4 0 -8 -6 -15 -12 -15 -18 0 -76 -49 -59 -50 8 0
29 11 47 25 18 14 37 25 42 25 6 0 29 8 52 19 57 26 183 25 188 -1 2 -12 -1
-16 -10 -13 -8 3 -25 2 -39 -3 -18 -7 -27 -5 -36 7 -11 15 -12 14 -13 -2 0
-14 -5 -16 -26 -11 -25 6 -26 5 -20 -20 8 -31 -10 -36 -19 -5 -5 16 -9 18 -15
9 -10 -17 -4 -70 10 -84 12 -12 13 -26 2 -26 -4 0 -13 14 -21 32 -13 29 -15
30 -28 12 -12 -16 -15 -17 -24 -4 -12 16 -12 18 5 -37 11 -35 -12 -36 -33 -2
-16 26 -21 30 -26 17 -4 -9 -1 -26 5 -38 13 -25 13 -26 -90 -104 -102 -77
-131 -107 -119 -122 9 -11 62 -21 142 -27 16 -1 33 -9 38 -19 5 -9 32 -22 64
-29 30 -7 55 -16 55 -22 0 -5 14 -7 30 -5 21 3 30 0 30 -9 0 -8 4 -12 9 -9 4
3 23 1 40 -4 20 -6 42 -5 58 1 l26 10 -7 -53 c-7 -51 -6 -52 9 -30 9 12 14 26
11 31 -3 5 1 14 8 20 20 17 28 -1 20 -44 -8 -45 0 -45 22 0 9 19 21 32 26 29
6 -4 8 -1 6 7 -3 8 -11 13 -17 11 -23 -5 -10 7 32 28 123 64 169 149 138 258
-7 24 -7 32 3 32 21 0 107 -74 151 -129 22 -28 46 -50 53 -51 15 0 16 -50 1
-50 -5 0 -35 -11 -66 -26 -31 -14 -70 -28 -87 -31 -47 -9 -72 -23 -56 -33 7
-5 20 -6 28 -3 8 3 17 2 21 -4 3 -5 26 -16 51 -25 25 -8 53 -19 63 -23 26 -11
23 39 -5 65 -12 11 -20 20 -17 21 24 6 69 5 69 -2 0 -5 -7 -9 -15 -9 -13 0
-13 -3 -3 -13 10 -12 15 -12 26 -1 12 13 70 9 82 -5 16 -19 53 -32 63 -22 7 7
3 13 -14 20 -25 10 -65 51 -50 51 24 0 69 -24 95 -51 33 -34 50 -38 41 -9 -6
20 9 28 20 10 10 -16 35 -12 35 6 0 9 -9 18 -20 21 -13 3 -20 12 -18 22 2 9
-5 23 -16 32 -17 14 -18 19 -8 32 8 9 10 26 6 42 l-6 26 -20 -20 c-10 -12 -26
-21 -34 -21 -11 0 -10 5 6 22 21 22 28 68 10 68 -5 0 -7 7 -4 15 5 11 2 13
-10 9 -13 -5 -16 1 -16 26 0 23 4 31 14 27 10 -4 12 0 9 14 -3 10 -12 19 -19
19 -8 0 -14 6 -14 14 0 8 -7 16 -15 20 -8 3 -15 9 -14 13 3 20 -2 25 -15 14
-10 -9 -15 -8 -20 4 -3 8 -12 15 -21 15 -19 0 -57 21 -68 38 -4 6 -17 12 -27
12 -11 0 -20 5 -20 10 0 6 -13 10 -30 10 -19 0 -30 5 -30 14 0 21 -18 30 -34
17 -9 -8 -18 -7 -31 3 -11 8 -25 12 -32 9 -7 -3 -13 -1 -13 4 0 6 -15 10 -32
11 -18 0 -34 6 -36 11 -2 6 -12 11 -22 11 -11 0 -23 7 -27 15 -5 8 -24 18 -42
21 -25 5 -32 4 -27 -4 10 -16 -5 -15 -26 2 -10 7 -15 16 -11 19 3 4 -1 7 -9 7
-31 0 -13 35 20 38 21 2 29 7 26 17 -6 15 9 21 78 30 34 5 45 11 41 21 -7 19
7 18 21 -1 8 -11 20 -14 44 -9 17 4 32 10 32 15 0 5 9 9 20 9 11 0 20 5 20 10
0 6 7 10 15 10 8 0 15 4 15 9 0 12 142 3 155 -10 5 -5 22 -9 37 -9 22 0 28 -4
26 -17 -2 -15 6 -19 50 -21 49 -3 76 -22 30 -22 -21 0 -21 0 -2 -19 10 -10 21
-15 24 -12 3 3 33 6 68 7 34 0 57 -3 50 -8 -7 -4 -21 -8 -30 -8 -10 0 -18 -4
-18 -10 0 -5 22 -10 48 -10 27 0 57 -6 68 -15 18 -14 17 -14 -14 -15 -30 0
-32 -2 -22 -20 6 -11 26 -27 45 -35 36 -14 45 -30 23 -38 -8 -2 -1 -10 15 -17
36 -17 35 -31 -3 -23 -36 7 -40 -4 -5 -17 24 -9 35 -30 15 -30 -17 0 -11 -28
8 -39 14 -8 15 -13 5 -30 -8 -13 -9 -22 -2 -26 5 -4 7 -15 4 -25 -4 -14 5 -30
30 -55 32 -31 34 -35 16 -35 -12 0 -21 -6 -21 -15 0 -8 6 -15 13 -15 16 0 43
-53 30 -57 -31 -11 -36 -21 -20 -38 10 -9 15 -21 12 -26 -7 -10 6 -12 29 -3 9
3 16 12 16 19 0 7 5 15 12 17 9 3 6 15 -9 41 -20 33 -21 37 -5 46 14 8 15 12
3 35 -11 19 -11 29 -2 39 11 14 12 117 1 117 -3 0 -7 36 -8 80 -1 44 -8 95
-16 114 -9 21 -10 38 -4 49 5 11 5 30 -1 52 -7 27 -6 39 4 48 10 10 10 16 -5
37 -28 40 -33 103 -11 129 23 26 31 27 31 1 0 -14 7 -20 23 -20 20 -1 20 -2 4
-11 -14 -8 -17 -21 -15 -65 3 -55 22 -75 31 -31 3 12 3 -6 1 -40 -3 -39 -1
-63 6 -63 24 0 7 -31 -25 -44 -34 -15 -34 -15 -19 -45 20 -39 28 -40 21 -1 -4
17 -3 30 1 30 8 0 28 -168 38 -320 3 -47 9 -125 15 -174 12 -115 12 -432 -1
-516 -5 -36 -10 -84 -10 -107 0 -31 -4 -43 -14 -43 -8 0 -18 -4 -21 -10 -3 -6
1 -7 10 -4 15 6 16 1 10 -42 -14 -99 -38 -188 -56 -207 -18 -20 -17 -43 2 -32
5 4 9 1 9 -5 0 -6 -7 -13 -16 -17 -11 -4 -12 -8 -4 -13 9 -6 8 -21 -6 -61 -9
-30 -18 -63 -20 -74 -5 -50 -30 -125 -42 -125 -8 0 -10 -8 -6 -25 3 -14 3 -33
0 -42 -6 -15 -8 -15 -16 -3 -6 9 -10 10 -10 3 0 -6 4 -14 9 -17 8 -6 4 -22
-25 -101 -11 -30 -11 -32 -13 -64 0 -16 -8 -37 -17 -46 -9 -8 -14 -21 -11 -28
3 -8 -4 -19 -14 -26 -11 -6 -17 -16 -14 -21 3 -6 2 -10 -4 -10 -6 0 -14 -12
-18 -27 l-7 -28 -7 25 c-5 18 -7 8 -8 -33 -1 -50 -4 -60 -21 -64 -19 -5 -24
-19 -21 -55 2 -12 -3 -16 -13 -12 -10 4 -17 -2 -22 -20 -8 -33 -24 -34 -24 -2
0 14 -4 28 -10 31 -5 3 -10 1 -10 -5 0 -7 -9 -24 -21 -38 -13 -17 -18 -34 -14
-49 3 -14 -1 -33 -10 -46 -8 -12 -15 -29 -15 -39 0 -21 -20 -24 -38 -6 -18 18
-15 -4 4 -31 16 -22 16 -24 0 -33 -20 -11 -20 -22 -2 -40 7 -8 17 -25 21 -38
l8 -24 -36 27 c-26 20 -36 23 -40 13 -3 -9 -15 -12 -31 -9 -34 7 -35 -20 -1
-35 20 -9 26 -8 33 5 11 18 32 9 32 -14 0 -11 -8 -14 -30 -11 -19 3 -30 0 -30
-7 0 -17 -36 -56 -44 -48 -3 3 -6 14 -6 24 0 9 -7 19 -15 23 -13 5 -15 -3 -10
-49 4 -46 2 -53 -11 -48 -10 4 -17 -2 -21 -16 -3 -11 -9 -21 -13 -21 -10 0 -7
-56 3 -66 4 -4 7 -16 7 -28 0 -19 0 -19 -14 -1 -8 11 -12 23 -10 27 3 5 0 8
-5 8 -6 0 -18 18 -27 40 -9 22 -21 40 -26 40 -6 0 -7 -8 -3 -17 22 -53 30
-118 15 -108 -7 4 -9 -3 -5 -22 5 -23 4 -25 -5 -10 -17 26 -32 21 -29 -10 2
-33 -10 -73 -22 -73 -5 0 -9 -9 -9 -20 0 -11 -5 -20 -11 -20 -7 0 -9 -10 -5
-27 7 -28 7 -28 -23 7 -17 19 -33 31 -37 27 -4 -4 -2 -7 4 -7 7 0 12 -12 12
-26 0 -14 4 -23 10 -19 6 3 10 1 10 -4 0 -6 -5 -11 -11 -11 -6 0 -9 -7 -6 -15
4 -8 2 -17 -3 -20 -6 -4 -10 5 -10 19 0 14 -4 26 -10 26 -5 0 -10 9 -10 21 0
23 -27 55 -38 45 -3 -4 0 -11 7 -16 8 -5 11 -15 7 -26 -4 -9 -3 -20 2 -23 5
-3 13 -17 17 -31 6 -20 5 -23 -6 -12 -20 19 -31 14 -19 -8 6 -11 15 -18 21
-15 5 4 9 -1 9 -10 0 -11 -5 -15 -15 -11 -8 3 -15 1 -15 -5 0 -6 -4 -8 -9 -5
-5 3 -7 -15 -6 -42 2 -26 1 -40 -2 -32 -4 10 -11 -1 -18 -30 l-12 -45 -12 26
c-9 19 -21 26 -43 27 -21 0 -27 -2 -20 -11 7 -8 2 -22 -18 -44 -16 -17 -31
-28 -35 -25 -4 4 -5 -4 -3 -18 2 -19 8 -24 25 -23 14 2 27 -5 33 -17 9 -17 6
-25 -17 -46 -24 -22 -25 -28 -15 -45 11 -17 10 -20 -5 -17 -15 2 -18 -4 -18
-35 0 -20 -4 -37 -8 -37 -5 0 -5 -5 -2 -10 3 -6 -1 -10 -10 -10 -8 0 -18 -8
-22 -17 -3 -10 -15 -28 -26 -40 -15 -17 -19 -31 -14 -62 3 -25 1 -41 -6 -44
-9 -3 -9 -10 0 -29 9 -20 8 -26 -7 -36 -16 -10 -20 -7 -28 16 l-10 27 -1 -28
c-1 -24 -3 -26 -14 -15 -8 7 -16 20 -20 28 -3 9 -6 2 -7 -15 0 -16 -7 -38 -15
-48 -7 -11 -11 -26 -8 -35 4 -14 2 -14 -10 1 -8 10 -13 26 -11 35 2 9 -9 32
-26 51 -30 34 -42 31 -15 -5 18 -24 20 -94 2 -94 -13 0 -37 24 -55 56 -9 16
-11 15 -20 -16 -6 -19 -11 -27 -11 -17 -1 10 -6 15 -11 12 -6 -3 -7 -17 -4
-30 3 -12 1 -26 -5 -29 -6 -4 -11 0 -11 8 0 9 -6 16 -12 16 -10 0 -10 2 0 9
16 10 12 53 -4 58 -6 2 -14 -10 -18 -28 -3 -19 -13 -33 -25 -36 -11 -3 -22
-12 -24 -22 -3 -9 -5 0 -6 19 -1 31 -3 33 -13 16 -6 -11 -11 -32 -10 -48 0
-15 -4 -30 -9 -34 -6 -3 -9 2 -7 12 4 27 -16 29 -22 3 -3 -12 -12 -25 -19 -27
-9 -3 -11 2 -6 18 5 15 4 20 -4 16 -6 -4 -11 -11 -11 -16 0 -5 -11 -21 -25
-36 -14 -15 -23 -34 -20 -41 2 -8 1 -11 -4 -8 -5 3 -12 1 -16 -5 -3 -5 -10
-10 -16 -10 -18 0 -8 21 24 50 18 16 38 45 44 64 13 42 11 44 -17 14 -24 -26
-29 -5 -6 27 12 18 12 23 -5 44 -19 23 -23 19 -20 -24 2 -30 -10 -41 -51 -48
-46 -7 -47 0 -8 38 17 16 30 33 30 39 0 6 -11 0 -25 -14 -36 -37 -53 -50 -65
-50 -18 0 -11 17 13 28 16 8 18 11 5 11 -9 1 -18 7 -21 14 -7 17 -67 -49 -67
-75 0 -21 -36 -78 -50 -78 -8 0 -21 50 -22 88 0 21 -1 22 -13 5 -8 -11 -10
-22 -5 -28 6 -7 -1 -22 -16 -40 l-25 -30 5 27 c5 21 2 28 -14 33 -24 8 -41 -1
-35 -18 3 -7 -4 -25 -15 -42 -11 -16 -20 -25 -20 -18 0 6 5 15 10 18 6 4 8 11
4 16 -3 5 4 25 16 45 26 41 17 60 -10 24 -16 -21 -20 -22 -20 -7 0 10 7 20 15
23 8 4 15 13 15 22 0 13 -2 13 -18 -1 -10 -10 -26 -17 -35 -17 -21 0 -60 -75
-52 -101 5 -13 2 -19 -10 -19 -11 0 -14 6 -9 25 6 26 -12 85 -26 85 -4 0 -11
10 -15 23 -5 16 -8 18 -12 7 -3 -8 -15 -23 -25 -34 -14 -13 -18 -27 -14 -46 3
-20 0 -32 -12 -42 -15 -12 -16 -11 -3 5 17 22 7 34 -14 17 -14 -12 -15 -10
-10 13 6 23 5 26 -11 20 -14 -5 -16 -3 -11 11 4 10 10 29 13 42 5 19 3 23 -10
18 -9 -3 -16 -17 -16 -29 0 -13 -5 -27 -11 -30 -15 -10 -40 27 -28 41 11 13 2
24 -16 18 -7 -3 -15 2 -18 10 -4 10 9 28 36 51 37 31 39 34 14 25 -16 -6 -39
-17 -50 -25 -25 -17 -37 -19 -37 -5 0 5 5 9 11 7 6 -1 14 4 17 12 3 10 0 12
-10 8 -9 -3 -21 0 -27 6 -8 8 -16 6 -30 -7 -18 -17 -20 -17 -27 6 l-8 23 -6
-25 c-4 -14 -12 -24 -19 -22 -8 1 -4 -10 8 -27 25 -35 26 -48 4 -92 l-18 -34
-8 45 c-5 25 -9 59 -9 75 -1 28 -2 27 -22 -17 -12 -26 -25 -48 -30 -48 -9 0
-3 49 12 98 9 29 9 32 -3 22 -8 -6 -19 -27 -25 -46 -12 -36 -32 -48 -23 -14 3
11 0 20 -6 20 -6 0 -11 -9 -11 -19 0 -11 -3 -26 -6 -35 -4 -11 -1 -16 10 -16
11 0 16 -9 16 -29 0 -37 -16 -49 -24 -18 -3 12 -16 33 -29 47 -21 22 -22 27
-10 50 7 14 13 34 12 45 0 16 -3 14 -11 -7 -10 -30 -28 -38 -28 -14 0 8 -5 18
-11 22 -9 5 -10 -1 -5 -20 3 -14 9 -37 12 -49 7 -32 -36 -85 -71 -85 -28 1
-32 10 -10 28 18 15 20 47 3 53 -10 3 -10 7 0 20 8 9 12 22 9 29 -3 9 -7 6
-13 -7 -4 -11 -13 -24 -21 -28 -7 -4 -13 -21 -13 -37 0 -17 -4 -30 -10 -30
-10 0 -14 19 -12 55 2 17 -1 16 -19 -7 -29 -39 -41 -35 -23 8 14 33 14 36 0
31 -11 -4 -13 -1 -9 10 5 12 3 14 -6 8 -8 -4 -17 -2 -22 6 -6 11 -14 6 -35
-19 -15 -17 -30 -32 -35 -32 -8 0 -24 40 -21 53 1 5 -2 6 -7 3 -5 -4 -13 -1
-16 4 -4 7 -19 8 -36 5 -33 -7 -41 13 -14 35 16 13 10 34 -9 27 -6 -2 -21 -1
-33 4 -19 7 -22 14 -18 44 4 31 2 35 -18 35 -13 0 -29 -6 -36 -12 -10 -11 -11
-8 -6 15 5 17 3 27 -4 27 -23 0 -23 30 0 50 21 17 22 19 6 20 -10 0 -27 -4
-37 -10 -13 -7 -19 -6 -24 5 -4 10 1 15 15 15 12 0 19 5 16 13 -2 6 -13 11
-23 10 -10 -1 -13 0 -6 3 6 3 12 15 12 27 0 15 -3 18 -8 9 -7 -10 -16 -9 -48
2 -28 11 -33 15 -17 15 17 1 22 6 20 24 -1 16 3 21 16 19 26 -4 21 13 -14 47
-25 25 -29 34 -19 46 14 17 5 35 -18 35 -16 1 -16 1 1 11 9 5 17 17 17 25 0
23 -28 47 -46 40 -12 -4 -15 -2 -11 9 4 8 2 17 -4 20 -6 4 -6 13 0 23 12 21
-29 55 -54 45 -13 -4 -16 -2 -13 8 3 8 -7 22 -21 33 -19 13 -20 16 -6 11 17
-5 16 -3 -5 20 l-25 26 25 19 c14 11 32 17 40 14 12 -4 11 -1 -2 12 -14 14
-20 15 -32 5 -8 -7 -25 -9 -40 -5 -19 4 -33 1 -46 -11 -23 -20 -26 -9 -6 18 7
9 21 17 30 17 9 0 16 7 16 15 0 9 7 18 15 21 28 11 15 20 -25 16 -32 -3 -39
-1 -34 11 8 23 -38 29 -75 11 -18 -9 -35 -14 -37 -11 -10 9 29 45 42 40 8 -3
14 0 14 5 0 6 -17 12 -37 14 -35 3 -38 5 -35 31 4 35 -28 67 -61 61 -12 -3 -5
3 15 12 44 19 40 38 -4 28 -26 -5 -30 -4 -25 10 4 10 1 16 -9 16 -12 0 -10 5
6 22 26 29 25 38 -5 38 -14 0 -25 4 -25 10 0 5 -7 6 -17 3 -10 -4 -14 -2 -10
4 4 6 3 23 -3 37 -9 26 -9 26 28 21 36 -6 73 7 59 21 -3 4 -13 1 -21 -5 -16
-13 -40 -6 -31 8 2 5 -14 12 -38 16 l-42 7 33 14 c17 8 32 19 32 25 0 7 -12 9
-32 5 -31 -6 -33 -4 -35 24 -1 17 2 30 7 30 6 0 10 5 10 10 0 6 -11 10 -25 10
-22 0 -27 5 -24 26 0 4 -5 10 -11 14 -9 6 -9 13 -1 29 14 24 31 28 31 6 0 -14
3 -13 25 1 31 20 33 38 4 31 -12 -3 -35 -3 -51 0 -26 5 -27 7 -11 19 17 12 17
13 1 19 -9 4 -14 13 -11 21 3 7 -5 25 -16 40 -27 35 -27 39 9 54 34 14 40 30
10 30 -13 0 -18 5 -14 15 7 17 -7 20 -23 4 -8 -8 -13 -8 -17 0 -4 6 -3 11 2
11 11 0 12 33 0 41 -5 3 -10 41 -12 85 -2 64 -6 80 -19 82 -13 3 -15 12 -10
48 4 32 2 44 -7 44 -8 0 -11 9 -8 25 4 20 2 24 -11 20 -14 -4 -16 2 -14 35 1
22 5 45 9 52 5 7 2 9 -9 5 -11 -4 -14 -2 -11 8 3 7 0 24 -7 37 -7 13 -12 33
-10 46 1 13 -5 34 -13 48 -9 13 -13 24 -8 24 14 0 33 48 22 55 -6 3 -15 -5
-21 -19 -16 -35 -26 -25 -27 29 -1 27 3 43 8 40 6 -3 10 5 10 19 0 19 -5 26
-19 26 -16 0 -21 10 -26 58 -3 31 -10 65 -16 75 -5 9 -7 30 -3 45 4 21 3 24
-5 12 -9 -12 -11 -11 -11 8 0 13 -4 21 -9 18 -5 -3 -7 -15 -4 -26 3 -11 1 -20
-5 -20 -15 0 -22 52 -36 250 -4 58 -10 116 -12 130 -8 48 -4 375 5 430 18 101
24 122 37 127 10 3 11 10 4 22 -11 22 -2 62 18 79 10 7 11 12 4 12 -26 0 -11
31 19 37 20 4 34 14 40 31 12 32 3 41 -16 16 -12 -17 -14 -17 -15 -2 0 18 25
48 41 48 5 0 10 -10 11 -22 0 -13 2 -29 2 -37 1 -8 6 -16 13 -18 14 -5 7 -30
-17 -58 -10 -11 -20 -29 -22 -40 -3 -11 -9 -28 -13 -37 -5 -13 -2 -18 9 -18
11 0 16 9 16 28 0 33 32 68 51 56 9 -5 10 -2 6 9 -7 18 14 65 35 79 10 7 10
11 -4 21 -14 11 -13 15 14 30 16 9 37 17 46 18 12 0 10 3 -6 10 -25 10 -21 29
6 30 12 0 11 3 -5 9 -33 13 -28 30 8 30 28 0 29 1 15 16 -21 20 -4 54 27 54
16 0 18 3 8 9 -18 11 -5 31 20 31 11 0 17 -4 14 -10 -3 -5 1 -10 9 -10 24 0
19 19 -6 29 -34 13 -5 21 70 18 34 -1 62 1 62 4 0 7 -116 24 -137 20 -7 -1
-13 2 -13 7 0 14 23 32 43 32 10 0 15 5 12 10 -4 6 12 10 42 10 47 1 48 1 23
16 -24 14 -23 15 28 11 40 -3 52 -1 48 8 -5 13 47 25 106 25 15 0 29 4 33 9 3
6 12 8 19 5 8 -3 17 -1 21 5 3 6 17 11 31 11 15 0 23 4 19 11 -4 5 10 1 31
-10 27 -15 41 -17 50 -10 7 6 41 11 75 12 50 2 64 -1 73 -15 6 -10 16 -18 23
-18 7 0 29 -9 50 -19 21 -10 57 -27 80 -37 23 -9 44 -25 46 -36 3 -11 14 -18
30 -18 20 0 24 -4 20 -19 -4 -14 1 -20 18 -23 22 -3 22 -4 4 -21 -10 -10 -26
-16 -36 -14 -11 3 -22 1 -25 -4 -3 -6 -28 -8 -54 -6 -27 3 -51 0 -52 -5 -3 -8
-87 -20 -142 -19 -11 0 -24 -7 -31 -15 -9 -12 -19 -13 -55 -5 -45 10 -59 4
-60 -26 0 -7 -6 -13 -12 -14 -7 -1 -29 -2 -48 -4 -19 -2 -36 -8 -38 -14 -2 -6
-10 -11 -18 -11 -8 0 -20 -11 -26 -25 -9 -19 -14 -22 -20 -13 -8 11 -11 11
-15 0 -8 -20 -34 -43 -43 -37 -5 3 -12 1 -15 -5 -5 -8 -11 -7 -21 1 -11 9 -14
6 -14 -17 1 -16 7 -40 15 -54 8 -14 14 -33 15 -43 0 -32 -19 -8 -34 41 -11 38
-15 43 -22 28 -7 -18 2 -51 31 -118 5 -13 3 -18 -10 -18 -11 0 -15 -5 -11 -15
3 -8 -1 -21 -9 -29 -21 -20 -19 -26 9 -26 14 0 27 -4 31 -10 4 -6 15 -6 31 1
23 8 25 7 19 -8 -4 -10 -10 -27 -12 -38 -5 -16 -3 -18 8 -7 21 19 56 15 62 -8
3 -12 14 -20 26 -20 13 0 25 -9 30 -21 l8 -22 21 23 c25 27 39 22 23 -8 -14
-26 -15 -54 -2 -33 7 11 13 12 23 4 10 -8 21 -5 44 15 26 22 30 31 23 50 -5
12 -15 22 -22 22 -8 0 -32 18 -54 39 -21 21 -48 40 -59 43 -29 5 -23 31 11 47
17 8 48 31 69 52 39 37 151 97 161 87 3 -3 -2 -25 -11 -49 -36 -101 25 -218
144 -275 27 -13 40 -14 59 -5 13 6 34 11 47 11 14 0 45 19 75 46 62 56 90 129
73 195 -6 24 -6 39 -1 39 14 0 65 -37 140 -102 57 -50 68 -56 83 -45 17 12 16
15 -6 49 -12 20 -29 38 -37 40 -12 3 -12 5 1 18 10 11 13 22 7 38 -8 22 -10
22 -34 6 -32 -21 -45 -10 -18 13 19 17 19 19 2 37 -10 10 -22 15 -28 11 -6 -3
-11 -1 -11 4 0 6 8 11 18 11 16 1 16 1 -1 11 -9 6 -15 14 -12 20 11 16 -5 31
-20 19 -10 -9 -16 -6 -25 9 -6 12 -19 21 -28 21 -25 0 -42 19 -35 39 5 13 2
13 -15 -3 -19 -16 -22 -17 -22 -3 0 11 -13 18 -45 23 -25 3 -48 10 -51 15 -9
14 70 10 116 -6 32 -11 47 -12 62 -4 18 10 20 9 15 -5 -4 -9 -2 -16 4 -16 6 0
39 -20 73 -45 35 -25 69 -45 75 -45 6 0 11 -4 11 -10 0 -5 5 -10 12 -10 15 0
138 -83 138 -93 0 -4 16 -24 35 -44 19 -20 35 -43 35 -53 0 -18 19 -40 33 -40
13 0 1 84 -12 88 -6 2 -11 12 -11 22 0 10 -4 21 -10 25 -5 3 -23 31 -40 63
-31 58 -83 122 -98 122 -16 0 -54 48 -43 54 5 4 12 2 15 -2 3 -5 17 -7 31 -5
l25 5 -24 19 c-13 11 -29 19 -35 19 -6 0 -11 2 -11 4 0 2 -2 10 -5 18 -3 8 3
13 20 14 14 1 25 -2 25 -7 0 -5 -5 -9 -12 -9 -6 0 -9 -2 -6 -5 9 -9 38 7 38
21 0 8 -4 14 -9 14 -5 0 -12 7 -15 16 -7 19 13 8 31 -17 13 -17 53 -33 53 -20
0 4 -13 20 -30 36 -38 37 -30 46 10 11 17 -14 36 -26 41 -26 13 0 11 17 -3 24
-7 3 -3 3 9 0 19 -4 22 -2 16 13 -10 30 -35 53 -57 53 -16 0 -18 2 -7 9 14 9
52 -14 110 -67 13 -12 26 -20 29 -17 3 3 -7 15 -21 28 -15 12 -27 29 -27 37 0
15 -62 52 -110 66 -14 4 -36 15 -49 25 -13 11 -38 19 -55 20 l-31 1 39 18 c44
20 29 32 -23 18 -44 -13 -81 -3 -81 21 0 21 -26 31 -80 31 -23 0 -30 3 -22 9
18 11 -48 24 -74 14 -16 -6 -17 -5 -6 9 11 14 10 17 -7 23 -25 7 -61 -2 -61
-16 0 -6 -8 -5 -20 1 -11 6 -18 16 -14 21 4 7 -7 8 -31 3 -36 -6 -37 -6 -26
15 7 11 8 21 2 21 -5 0 -11 -7 -14 -15 -5 -12 -10 -12 -34 0 -15 8 -36 15 -45
15 -21 0 -24 16 -5 23 6 3 0 6 -15 6 -16 1 -28 5 -28 10 0 6 -34 9 -77 8 -58
-1 -77 1 -75 11 2 13 -10 16 -21 5 -10 -10 -150 -53 -156 -48 -10 11 23 33 57
39 51 8 66 20 58 42 -7 18 -8 18 -20 2 -20 -27 -39 -22 -34 7 4 17 1 25 -8 25
-8 0 -14 -4 -14 -10 0 -14 -33 -13 -47 1 -13 13 -93 -21 -125 -53 -10 -10 -33
-28 -51 -38 -18 -11 -28 -20 -23 -20 17 0 -26 -39 -66 -60 -46 -24 -52 -25
-44 -5 3 8 1 15 -5 15 -7 0 -9 -10 -5 -26 6 -22 4 -25 -14 -19 -15 5 -18 3
-14 -8 3 -8 1 -18 -5 -22 -6 -3 -11 1 -11 9 0 9 -5 16 -12 16 -9 0 -9 3 0 12
18 18 14 32 -5 17 -9 -8 -24 -13 -35 -11 -25 4 -83 -44 -63 -52 8 -3 15 -1 15
4 0 6 4 10 9 10 5 0 4 -11 -2 -25 -17 -35 -47 -33 -46 3 2 48 15 87 27 84 7
-1 12 2 12 8 0 5 -4 10 -9 10 -13 0 -21 41 -14 69 5 21 7 22 12 8 6 -16 9 -16
26 -3 20 14 19 15 -5 24 -22 9 -23 11 -7 17 9 4 17 16 17 27 0 12 -5 17 -12
13 -7 -4 -6 -1 2 7 20 18 53 78 47 85 -10 9 -27 -8 -27 -28 0 -18 -11 -25 -22
-13 -10 10 24 66 43 71 11 3 19 10 19 15 0 5 -4 6 -10 3 -5 -3 -10 -1 -10 4 0
6 4 11 9 11 5 0 9 28 9 63 0 42 6 77 20 108 18 42 19 49 6 68 -10 14 -12 25
-5 38 6 10 13 35 16 56 3 21 10 35 16 32 5 -4 9 5 9 19 0 14 5 26 12 26 9 0 9
3 0 12 -10 10 -15 10 -22 -2 -8 -13 -10 -13 -10 2 0 9 5 20 10 23 6 4 8 15 5
26 -5 15 -1 19 16 19 16 0 19 3 11 13 -11 13 -6 53 10 73 5 7 7 29 4 50 -4 38
7 71 28 87 8 6 7 10 -2 14 -16 6 -5 24 12 17 9 -4 15 7 19 36 3 23 12 49 21
59 9 10 16 25 16 34 0 9 7 17 15 17 9 0 15 9 15 21 0 11 8 28 17 37 16 16 16
16 11 -6 -4 -13 -2 -20 4 -16 5 3 23 0 39 -7 29 -11 32 -10 55 16 28 33 29 36
9 29 -8 -4 -15 -10 -15 -15 0 -5 -7 -9 -15 -9 -23 0 -18 16 10 34 15 10 34 14
45 11 22 -7 28 10 8 18 -7 2 -10 8 -5 12 4 5 13 3 19 -3 12 -12 38 1 38 21 0
5 11 20 25 33 27 24 35 16 10 -10 -10 -9 -11 -17 -5 -21 12 -7 33 12 43 38 3
9 13 17 21 17 8 0 20 8 25 18 9 14 10 13 11 -10 0 -16 4 -28 9 -28 5 0 9 16 8
36 -1 21 5 39 13 45 24 15 30 11 30 -21 0 -16 4 -30 9 -30 10 0 23 58 15 71
-3 5 7 9 21 9 22 0 25 -3 20 -22 -5 -20 -5 -21 5 -5 6 9 15 15 21 12 5 -4 9 1
9 9 0 9 14 25 30 38 17 12 30 25 30 29 0 13 50 63 56 56 9 -9 32 16 27 29 -2
6 10 14 27 18 18 3 44 14 58 24 15 11 42 24 61 30 32 11 33 11 27 -13 l-6 -24
47 20 c27 11 56 24 66 30 10 5 27 7 38 4 11 -4 26 -2 33 4 7 6 78 13 164 15
132 4 153 2 161 -12 8 -13 13 -14 35 -4 14 6 28 7 31 3 3 -5 23 -5 45 0 69 16
162 17 167 2 4 -11 8 -11 21 -1 12 11 16 11 20 0 3 -10 7 -10 17 -2 10 8 19 8
35 0 16 -9 25 -8 36 1 13 10 17 10 25 -2 7 -11 9 -8 10 11 1 24 2 24 8 -3 6
-28 6 -28 23 -7z m908 -2488 c0 -4 -6 -17 -14 -28 -38 -54 -22 -177 29 -225
32 -31 33 -54 3 -44 -13 3 -39 10 -58 15 -19 5 -69 23 -110 41 -57 24 -90 31
-137 31 -43 0 -63 4 -67 14 -6 15 39 54 63 54 9 0 63 27 121 60 58 33 110 60
116 60 6 0 17 7 24 15 13 16 30 20 30 7z"/>
<path d="M6052 5544 c-13 -6 -22 -13 -20 -15 5 -7 -27 -37 -34 -32 -5 2 -8 0
-8 -6 0 -5 8 -12 18 -14 14 -4 14 -6 -5 -12 -13 -4 -23 -12 -23 -19 -1 -21
-87 -104 -129 -125 -43 -20 -43 -20 -64 0 -12 10 -25 15 -30 10 -4 -4 -27 -5
-50 0 -26 5 -54 4 -73 -3 -52 -18 -83 -2 -174 91 -71 73 -93 90 -133 101 -45
12 -49 12 -72 -10 -36 -34 -31 -42 21 -36 44 5 51 2 106 -41 33 -25 69 -60 81
-78 12 -18 42 -46 67 -63 41 -27 55 -31 150 -36 154 -10 170 -12 179 -22 10
-11 36 -106 33 -118 -5 -17 19 -33 48 -31 19 1 30 -3 30 -11 0 -7 8 -17 18
-23 16 -9 16 -11 -1 -23 -17 -13 -17 -15 5 -44 13 -17 28 -29 35 -27 12 4 26
-32 22 -58 -3 -21 12 -79 21 -79 4 0 10 9 13 20 3 11 1 17 -4 14 -6 -3 -7 15
-4 45 3 37 1 54 -11 66 -9 9 -14 19 -11 22 8 7 31 -16 40 -39 7 -20 27 -25 27
-7 0 5 10 9 22 7 31 -4 34 21 6 62 -33 48 -58 53 -28 5 19 -30 20 -39 9 -46
-18 -11 -34 6 -52 56 -8 22 -18 48 -22 58 -5 13 -3 16 8 11 9 -3 17 -13 19
-22 2 -11 6 -13 10 -6 4 6 -1 20 -12 31 -10 12 -16 24 -12 29 4 4 2 4 -5 0 -9
-5 -63 19 -92 40 -2 2 4 14 12 28 9 13 12 26 7 28 -5 2 -7 13 -4 25 4 14 11
20 21 16 9 -4 23 2 32 13 9 11 41 31 71 44 81 36 126 70 149 114 27 54 16 64
-23 21 -34 -37 -46 -43 -46 -22 0 11 -42 59 -92 102 -19 17 -27 19 -46 9z"/>
<path d="M5088 5462 c26 -64 88 -116 207 -174 29 -14 45 -28 43 -38 -2 -8 -8
-15 -15 -15 -6 0 -15 -3 -19 -7 -4 -5 0 -8 9 -8 13 0 16 -7 12 -35 -2 -19 0
-37 5 -40 25 -16 -4 -64 -39 -65 -11 0 -10 4 3 19 10 11 16 26 13 33 -4 10 -6
10 -6 1 -2 -25 -21 -12 -22 15 -1 20 -2 22 -6 7 -3 -11 -15 -31 -26 -44 -18
-20 -19 -23 -4 -18 18 7 24 -8 7 -18 -5 -3 -10 -17 -10 -30 0 -13 -5 -25 -11
-27 -6 -2 -17 -18 -25 -36 -13 -31 -12 -32 7 -21 26 14 32 8 23 -26 -5 -19 -9
-23 -15 -14 -6 11 -9 11 -13 -1 -8 -21 -2 -51 10 -49 26 4 34 14 39 52 17 118
35 144 118 171 18 6 24 26 7 26 -9 0 8 49 21 60 17 14 28 51 26 88 -1 23 -4
42 -7 43 -3 0 -35 2 -72 3 -55 3 -74 8 -102 30 -19 14 -39 26 -45 26 -6 0 -35
25 -65 55 -31 30 -52 47 -48 37z"/>
<path d="M6195 4949 c4 -13 14 -33 21 -44 19 -27 17 -38 -6 -32 -16 4 -19 1
-15 -16 3 -12 7 -41 8 -64 1 -33 6 -43 19 -43 9 0 24 -7 32 -16 10 -10 24 -13
38 -9 16 4 19 3 10 -3 -11 -7 -11 -12 2 -25 9 -8 16 -24 17 -34 0 -16 1 -16 8
2 5 11 4 25 -1 32 -6 7 -5 14 2 18 6 3 8 11 4 16 -3 5 -9 23 -14 38 -8 28 -7
29 20 21 22 -6 30 -5 35 8 5 13 9 10 20 -15 9 -22 27 -37 60 -52 26 -12 49
-21 50 -21 1 0 0 11 -2 25 -5 25 -33 57 -33 37 0 -6 5 -14 10 -17 6 -3 10 -10
10 -15 0 -13 -80 41 -80 54 -1 19 -34 52 -67 66 -18 8 -38 25 -44 37 -8 14
-16 20 -22 14 -13 -13 -62 15 -62 35 0 10 -6 19 -14 22 -10 3 -11 -2 -6 -19z"/>
<path d="M5825 4722 c-11 -2 -24 -8 -29 -13 -6 -5 -18 -9 -28 -9 -20 0 -26
-44 -8 -55 14 -9 3 -24 -18 -24 -9 1 -27 -2 -39 -6 -13 -4 -23 -3 -23 1 0 18
-80 8 -94 -11 -9 -12 -15 -15 -20 -7 -4 7 -14 12 -23 12 -14 0 -14 -3 1 -24 9
-14 12 -27 7 -31 -13 -7 -54 10 -70 29 -19 22 -31 20 -31 -5 0 -18 -2 -19 -15
-9 -8 7 -15 19 -15 26 0 8 -7 14 -16 14 -11 0 -14 -5 -10 -16 9 -23 -3 -37
-20 -23 -8 7 -14 7 -14 2 0 -13 -147 20 -163 36 -6 6 -21 11 -34 11 -17 0 -28
10 -40 38 -10 20 -19 39 -20 41 -1 2 -9 -1 -16 -8 -8 -6 -27 -12 -42 -13 -15
-2 -30 -10 -32 -18 -3 -10 -17 -16 -45 -16 -26 -1 -44 -7 -50 -18 -5 -9 -18
-16 -28 -16 -10 0 -22 -4 -25 -10 -3 -5 -15 -10 -26 -10 -12 0 -19 -7 -19 -19
0 -13 -12 -22 -45 -31 -25 -7 -45 -17 -45 -22 0 -5 -4 -7 -9 -3 -6 3 -13 -1
-18 -8 -4 -8 -15 -17 -23 -20 -12 -4 -12 -6 2 -6 11 -1 19 -13 23 -35 7 -33 9
-34 63 -40 63 -6 138 -1 192 14 50 14 60 13 53 -7 -5 -13 -2 -15 11 -10 10 4
20 7 22 7 2 0 4 7 4 15 0 9 9 15 23 15 12 -1 37 2 55 6 25 5 32 3 32 -10 0
-10 8 -16 23 -16 17 0 19 2 7 10 -20 12 -9 20 19 13 13 -3 20 -11 17 -19 -4
-10 3 -14 24 -14 19 0 30 5 30 14 0 19 118 40 136 25 13 -11 87 -7 132 7 13 4
22 2 22 -5 0 -6 7 -11 16 -11 8 0 22 -6 30 -14 12 -13 20 -12 58 5 35 15 55
18 102 12 33 -4 75 -7 94 -6 78 4 97 2 135 -16 22 -10 55 -24 73 -32 19 -8 32
-21 32 -31 0 -13 8 -18 28 -18 23 1 24 2 9 11 -12 7 -15 17 -11 37 11 43 15
45 36 15 10 -15 18 -21 17 -13 -4 39 1 44 22 22 27 -30 46 -85 31 -90 -21 -7
-13 -20 8 -15 32 8 33 20 5 60 -36 54 -32 71 9 36 19 -16 33 -36 32 -48 0 -11
4 -20 11 -20 6 0 14 -3 18 -6 9 -9 -5 -59 -17 -59 -5 0 -6 9 -3 20 4 14 2 20
-8 20 -9 0 -17 -6 -20 -12 -2 -7 -19 -13 -37 -13 -28 0 -35 -4 -40 -25 -6 -23
-6 -24 -14 -5 l-8 20 -8 -20 c-8 -18 -9 -17 -9 6 -1 32 -31 49 -31 18 0 -18
-1 -19 -25 -3 -28 18 -30 12 -14 -35 7 -19 16 -30 24 -27 20 7 26 -4 14 -26
-10 -19 -12 -19 -30 -2 -15 14 -21 14 -34 4 -8 -7 -14 -20 -13 -29 2 -10 -4
-16 -17 -16 -15 0 -20 -7 -20 -25 0 -21 -4 -25 -27 -22 -22 2 -30 -4 -44 -34
l-17 -36 -59 5 c-32 3 -66 11 -75 19 -12 9 -15 9 -9 1 5 -9 0 -13 -13 -13 -13
0 -19 5 -15 14 3 8 -3 15 -14 18 -27 8 -106 -2 -110 -13 -2 -5 -11 -2 -20 7
-11 12 -26 14 -54 10 -33 -6 -38 -4 -38 14 0 25 -11 25 -33 0 -18 -21 -33 -25
-41 -11 -3 4 -25 5 -48 1 -24 -5 -50 -4 -60 1 -9 5 -26 9 -37 9 -11 0 -26 9
-34 20 -8 11 -20 18 -28 16 -27 -10 -60 35 -72 99 -2 12 -6 3 -11 -22 -4 -24
-12 -43 -17 -43 -6 0 -9 6 -8 13 2 12 -3 30 -21 72 -8 18 -9 19 -9 1 -1 -14
-6 -17 -26 -12 -18 5 -23 3 -19 -8 11 -29 -14 -25 -26 4 -12 29 -10 62 6 134
5 22 4 28 -7 24 -7 -2 -25 1 -38 8 -14 7 -26 12 -28 10 -7 -7 23 -56 35 -56
16 0 15 -15 -4 -52 l-16 -32 -12 28 c-10 26 -11 24 -11 -23 0 -28 3 -51 7 -51
4 0 19 -20 34 -45 14 -25 29 -45 33 -45 17 0 56 -46 53 -61 -3 -18 46 -53 91
-64 15 -4 27 -11 27 -16 0 -5 18 -9 40 -9 22 0 40 -4 40 -10 0 -5 7 -10 15
-10 8 0 33 -19 56 -41 47 -46 84 -61 144 -59 53 1 140 32 170 60 16 15 38 23
62 24 21 0 42 7 46 14 6 9 12 10 21 3 8 -7 24 -7 44 -1 18 5 35 9 37 9 3 1 6
1 8 2 1 0 29 3 61 5 33 2 64 8 70 13 6 5 20 11 31 14 19 4 18 5 -2 6 -12 0
-24 5 -27 10 -8 13 31 44 48 38 8 -3 32 8 55 25 23 16 41 25 41 19 0 -6 6 -8
14 -5 8 3 17 0 21 -6 9 -14 35 6 35 26 0 8 6 14 14 14 14 0 55 57 67 95 6 16
7 14 9 -10 l1 -30 16 33 c9 17 22 32 29 32 6 0 15 7 18 16 10 25 7 27 -11 8
-17 -17 -18 -17 -21 5 -5 29 5 54 18 46 5 -3 10 -2 10 4 0 5 -6 12 -12 14 -8
4 -4 8 10 12 12 4 22 11 22 16 0 5 23 9 50 9 39 0 52 4 56 18 3 9 12 29 20 44
15 28 15 28 -15 22 -27 -6 -29 -4 -24 15 4 15 1 21 -11 21 -9 0 -19 7 -22 15
-4 8 -15 15 -25 15 -10 0 -19 6 -19 14 0 7 -15 21 -33 29 -18 9 -42 27 -53 40
-15 17 -37 27 -70 32 -27 4 -56 13 -64 20 -21 18 -80 30 -80 16 0 -6 -7 -11
-15 -11 -8 0 -15 -5 -15 -11 0 -7 -9 -9 -23 -5 -19 4 -26 0 -35 -19 -14 -30 3
-35 24 -7 9 11 13 12 14 4 0 -25 -35 -50 -77 -54 -24 -2 -45 1 -47 7 -3 7 -7
6 -13 -1 -4 -6 -25 -14 -46 -17 -29 -5 -36 -3 -30 6 5 7 10 32 11 55 1 48 15
72 42 72 10 0 20 7 24 15 4 12 -3 14 -37 13 -23 -2 -51 -4 -62 -6z"/>
<path d="M3970 3550 c0 -5 7 -13 15 -18 14 -7 13 -11 -5 -34 -11 -14 -20 -33
-20 -42 0 -21 -71 -19 -86 3 -9 12 -46 16 -180 22 -93 3 -176 4 -184 1 -8 -3
-73 -62 -145 -131 -150 -146 -187 -168 -290 -170 -38 -1 -88 -6 -110 -12 -22
-6 -53 -13 -70 -16 -16 -3 -36 -15 -45 -26 -9 -11 -69 -47 -132 -81 -150 -79
-318 -175 -343 -196 -25 -21 -161 -96 -235 -130 -30 -14 -66 -33 -80 -42 -13
-10 -31 -18 -40 -18 -8 0 -26 -9 -40 -20 -14 -11 -30 -20 -36 -20 -9 0 -89
-39 -139 -68 -11 -6 -92 -45 -180 -87 -88 -42 -236 -114 -330 -159 -93 -46
-228 -111 -300 -145 -118 -57 -283 -147 -295 -161 -3 -3 -16 -11 -30 -18 -14
-6 -34 -18 -44 -24 -11 -7 -65 -42 -120 -77 -56 -35 -119 -76 -141 -91 -22
-15 -62 -40 -90 -54 -89 -48 -143 -81 -162 -99 -11 -9 -23 -17 -27 -17 -4 0
-25 -15 -46 -32 l-40 -33 0 -777 0 -778 6000 0 6000 0 0 531 c0 463 -2 535
-16 564 -17 36 -79 96 -190 185 -38 30 -108 93 -155 140 -120 117 -177 170
-224 205 -21 16 -47 37 -57 47 -10 10 -21 18 -26 18 -4 0 -25 17 -47 38 -22
22 -50 44 -63 51 -12 6 -63 41 -113 77 -83 60 -171 115 -377 236 -40 24 -89
53 -110 65 -20 12 -67 38 -104 57 -36 20 -69 40 -73 45 -3 6 -34 24 -68 42
-34 17 -67 35 -73 40 -17 14 -182 95 -239 117 -166 66 -210 84 -220 91 -5 4
-38 18 -72 30 -35 12 -91 38 -125 58 -35 19 -84 43 -109 53 -26 11 -69 32 -95
48 -27 17 -60 33 -74 37 -14 4 -31 13 -39 19 -28 24 -350 189 -576 296 -60 29
-139 69 -175 89 -77 43 -113 57 -202 81 -96 25 -149 60 -203 132 -26 34 -55
68 -66 76 -11 7 -54 17 -97 22 -42 5 -98 15 -123 24 -56 17 -89 11 -173 -33
-64 -33 -142 -41 -216 -22 -19 5 -66 11 -103 14 -56 4 -67 2 -63 -9 3 -8 1
-14 -4 -14 -6 0 -10 5 -10 10 0 6 -5 10 -11 10 -6 0 -8 -9 -4 -20 4 -14 2 -19
-7 -17 -7 2 -10 2 -5 0 11 -7 9 -51 -3 -58 -16 -10 -8 -108 10 -122 13 -12 13
-14 -2 -26 -15 -12 -16 -19 -4 -64 18 -66 33 -94 40 -73 10 31 31 300 23 300
-4 0 -5 5 -2 10 10 17 26 0 20 -21 -4 -11 -2 -19 5 -19 6 0 29 -17 50 -37 51
-51 87 -75 160 -109 118 -53 180 -86 175 -94 -3 -5 5 -10 17 -12 15 -2 24 -11
26 -25 3 -21 13 -27 34 -24 4 0 10 -8 13 -19 4 -11 13 -20 21 -20 22 0 47 -66
34 -90 -5 -10 -10 -26 -10 -34 0 -18 -82 -186 -128 -264 -18 -29 -32 -55 -32
-58 0 -2 -26 -37 -57 -78 -32 -40 -67 -85 -77 -100 -19 -26 -27 -36 -67 -83
-22 -26 -110 -103 -118 -103 -14 0 -27 38 -30 85 -3 57 -7 64 -24 46 -9 -11
-9 -14 1 -18 13 -5 17 -33 4 -33 -12 0 -9 -43 2 -52 13 -9 -13 -87 -36 -112
-10 -11 -18 -26 -18 -33 0 -7 -38 -45 -85 -85 -47 -39 -85 -75 -85 -80 0 -4
-5 -8 -11 -8 -6 0 -28 -14 -48 -30 -20 -17 -41 -34 -47 -38 -32 -22 -240 -127
-329 -167 -33 -14 -80 -35 -105 -46 -25 -11 -56 -26 -70 -33 -14 -7 -45 -18
-70 -25 -25 -7 -60 -19 -78 -27 -18 -8 -44 -14 -57 -14 -13 0 -27 -5 -30 -10
-3 -5 -16 -10 -27 -10 -12 0 -35 -4 -52 -10 -93 -28 -283 -68 -361 -76 -102
-10 -405 -12 -445 -4 -25 5 -90 18 -145 29 -85 16 -160 35 -320 81 -68 19
-152 54 -180 75 -29 22 -136 78 -185 97 -14 6 -34 15 -45 21 -40 22 -191 94
-225 107 -19 8 -48 23 -65 35 -108 73 -304 251 -348 315 -17 25 -34 47 -37 50
-14 11 -40 92 -40 125 0 19 -3 35 -8 35 -4 0 -6 17 -4 39 3 25 -1 40 -10 43
-9 4 -13 -5 -14 -31 -2 -55 -7 -80 -16 -75 -5 3 -6 10 -3 15 4 5 1 9 -4 9 -6
0 -11 -5 -11 -12 0 -15 -37 19 -53 49 -7 12 -37 71 -68 130 -31 60 -72 138
-92 174 -31 58 -34 73 -30 120 5 56 21 97 48 119 9 7 22 25 30 40 7 14 31 44
52 65 31 33 44 39 71 37 17 -2 32 -8 32 -14 0 -7 17 -9 45 -6 34 4 45 2 45 -8
0 -8 -9 -14 -20 -14 -27 0 -25 -18 3 -22 25 -3 97 59 97 85 0 8 8 17 19 20 16
4 20 17 25 83 3 44 5 97 5 118 -1 24 5 44 13 50 22 16 31 133 11 140 -20 8
-23 8 -23 -4z"/>
</g>
</svg>
