<svg width="598" height="191" viewBox="0 0 598 191" fill="none" xmlns="http://www.w3.org/2000/svg">
<g filter="url(#filter0_b)">
<path d="M0 0H598V191H0V0Z" fill="white"/>
</g>
<g filter="url(#filter1_b)">
<path fill-rule="evenodd" clip-rule="evenodd" d="M597.495 0.332174H0.505068V190.668H597.495V0.332174ZM0 0V191H598V0H0Z" fill="black"/>
</g>
<g>
<path id="imad" d="M54.8822 89.84V146H41.2022V89.84H54.8822Z" fill="orange"/>
<path id="imad" d="M128.396 89.84V146H114.716V112.32L102.156 146H91.1159L78.4759 112.24V146H64.7959V89.84H80.9559L96.7159 128.72L112.316 89.84H128.396Z" fill="#0C0997"/>
<path id="imad" d="M173.193 136.08H152.233L148.873 146H134.553L154.873 89.84H170.713L191.033 146H176.553L173.193 136.08ZM169.673 125.52L162.713 104.96L155.833 125.52H169.673Z" fill="#0C0997"/>
<path id="imad" d="M218.258 89.84C224.178 89.84 229.351 91.0133 233.778 93.36C238.204 95.7067 241.618 99.0133 244.018 103.28C246.471 107.493 247.698 112.373 247.698 117.92C247.698 123.413 246.471 128.293 244.018 132.56C241.618 136.827 238.178 140.133 233.698 142.48C229.271 144.827 224.124 146 218.258 146H197.218V89.84H218.258ZM217.378 134.16C222.551 134.16 226.578 132.747 229.458 129.92C232.338 127.093 233.778 123.093 233.778 117.92C233.778 112.747 232.338 108.72 229.458 105.84C226.578 102.96 222.551 101.52 217.378 101.52H210.898V134.16H217.378Z" fill="#0C0997"/>
<path id="imad" d="M322.536 146H308.856L285.976 111.36V146H272.296V89.84H285.976L308.856 124.64V89.84H322.536V146Z" fill="#0C0997"/>
<path id="imad" d="M367.412 136.08H346.452L343.092 146H328.772L349.092 89.84H364.932L385.252 146H370.772L367.412 136.08ZM363.892 125.52L356.932 104.96L350.052 125.52H363.892Z" fill="#0C0997"/>
<path id="imad" d="M426.637 89.84V128.08C426.637 134 424.957 138.56 421.597 141.76C418.29 144.96 413.81 146.56 408.157 146.56C402.237 146.56 397.49 144.88 393.917 141.52C390.343 138.16 388.557 133.387 388.557 127.2H402.157C402.157 129.547 402.637 131.333 403.597 132.56C404.557 133.733 405.943 134.32 407.757 134.32C409.41 134.32 410.69 133.787 411.597 132.72C412.503 131.653 412.957 130.107 412.957 128.08V89.84H426.637Z" fill="#0C0997"/>
<path id="imad" d="M501.287 89.84V146H487.607V112.32L475.047 146H464.007L451.367 112.24V146H437.687V89.84H453.847L469.607 128.72L485.207 89.84H501.287Z" fill="#0C0997"/>
<path id="imad" d="M524.804 89.84V146H511.124V89.84H524.804Z" fill="orange"/>
</g>
<g>
<path fill-rule="evenodd" clip-rule="evenodd" d="M64.7959 89.84V146H78.4759V112.24L91.1159 146H102.156L114.716 112.32V146H128.396V89.84H112.316L96.7159 128.72L80.9559 89.84H64.7959ZM96.645 88.6153L91.0611 74.84H26.2022V161H93.6152L96.7869 168.825L99.9265 161H159.63L162.713 151.896L165.797 161H218.258C226.143 161 233.767 159.413 240.692 155.75C247.615 152.115 253.196 146.814 257.059 139.972C257.139 139.832 257.218 139.692 257.296 139.552V161H314.81L323.856 174.759V161H353.849L356.932 151.896L360.016 161H401.237C403.511 161.381 405.827 161.56 408.157 161.56C413.133 161.56 418.091 160.716 422.687 158.748V161H466.506L469.678 168.825L472.817 161H539.804V74.84H475.063L469.536 88.6152L463.952 74.84H397.957V112.2H388.974L375.457 74.84H362.572L356.85 57.9368L351.194 74.84H338.568L337.536 77.692V74.84H279.831L270.976 61.4338V74.84H257.296V96.2838C257.211 96.1323 257.125 95.9813 257.038 95.8306C253.196 89.0431 247.674 83.7495 240.803 80.107C233.852 76.4217 226.183 74.84 218.258 74.84H182.218V77.5486L181.238 74.84H168.353L162.631 57.9368L156.975 74.84H144.349L143.396 77.4743V74.84H102.172L96.645 88.6153ZM170.713 89.84H154.873L134.553 146H148.873L152.233 136.08H173.193L176.553 146H191.033L170.713 89.84ZM162.713 104.96L155.833 125.52H169.673L162.713 104.96ZM197.218 146H218.258C224.124 146 229.271 144.827 233.698 142.48C235.489 141.542 237.113 140.451 238.572 139.206C240.762 137.336 242.577 135.121 244.018 132.56C246.471 128.293 247.698 123.413 247.698 117.92C247.698 112.373 246.471 107.493 244.018 103.28C242.585 100.732 240.79 98.5266 238.634 96.6635C237.18 95.4065 235.561 94.3053 233.778 93.36C229.351 91.0133 224.178 89.84 218.258 89.84H197.218V146ZM210.898 134.16H217.378C217.675 134.16 217.968 134.155 218.258 134.146C221.193 134.051 223.74 133.478 225.898 132.425C226.562 132.101 227.189 131.732 227.78 131.317C227.797 131.305 227.814 131.293 227.831 131.281C228.409 130.871 228.951 130.417 229.458 129.92C230.618 128.781 231.544 127.453 232.237 125.933C232.255 125.894 232.272 125.855 232.29 125.816C233.282 123.588 233.778 120.956 233.778 117.92C233.778 114.924 233.295 112.313 232.329 110.086C232.302 110.024 232.275 109.962 232.247 109.901C231.553 108.359 230.624 107.006 229.458 105.84C228.965 105.347 228.439 104.896 227.879 104.488C227.259 104.036 226.599 103.636 225.898 103.288C223.74 102.215 221.193 101.631 218.258 101.534C217.968 101.525 217.675 101.52 217.378 101.52H210.898V134.16ZM272.296 146H285.976V111.36L308.856 146H322.536V89.84H308.856V124.64L285.976 89.84H272.296V146ZM364.932 89.84H349.092L328.772 146H343.092L346.452 136.08H367.412L370.772 146H385.252L364.932 89.84ZM356.932 104.96L350.052 125.52H363.892L356.932 104.96ZM388.557 127.2C388.557 132.923 390.085 137.437 393.143 140.741C393.209 140.811 393.275 140.881 393.341 140.951C393.528 141.145 393.719 141.335 393.917 141.52C394.166 141.755 394.422 141.982 394.683 142.2C394.792 142.291 394.902 142.38 395.012 142.469C396.775 143.871 398.79 144.913 401.057 145.594C403.088 146.205 405.321 146.526 407.757 146.557C407.889 146.559 408.023 146.56 408.157 146.56C413.81 146.56 418.29 144.96 421.597 141.76C421.696 141.665 421.795 141.568 421.892 141.471C422.169 141.192 422.434 140.903 422.687 140.605C425.32 137.496 426.637 133.321 426.637 128.08V89.84H412.957V128.08C412.957 129.618 412.695 130.88 412.173 131.865C412.155 131.899 412.137 131.933 412.118 131.966C411.965 132.239 411.791 132.491 411.597 132.72C410.764 133.699 409.618 134.229 408.157 134.309C408.026 134.316 407.892 134.32 407.757 134.32C405.943 134.32 404.557 133.733 403.597 132.56C403.407 132.318 403.237 132.055 403.085 131.77C402.565 130.794 402.264 129.564 402.181 128.08C402.165 127.796 402.157 127.503 402.157 127.2H388.557ZM437.687 146H451.367V112.24L464.007 146H475.047L487.607 112.32V146H501.287V89.84H485.207L469.607 128.72L453.847 89.84H437.687V146ZM511.124 89.84V146H524.804V89.84H511.124ZM54.8822 146V89.84H41.2022V146H54.8822Z" fill="#635959" fill-opacity="0.92"/>
</g>
</svg>