<svg id="Layer_1" enable-background="new 0 0 511.709 511.709" height="512" viewBox="0 0 511.709 511.709" width="512" xmlns="http://www.w3.org/2000/svg"><g><path d="m496.709 199.298h-47.39c-3.255-10.658-7.387-21.023-12.356-30.994l37.176-37.177c2.813-2.813 4.394-6.628 4.394-10.606 0-3.979-1.58-7.793-4.394-10.606l-66.149-66.149c-5.857-5.858-15.355-5.858-21.213 0l-36.002 36.001c-10.123-5.393-20.684-9.908-31.574-13.501v-51.102c0-8.284-6.716-15-15-15h-93.548c-8.284 0-15 6.716-15 15v50.013c-11.408 3.54-22.478 8.091-33.096 13.605l-32.405-32.405c-5.857-5.858-15.355-5.857-21.213 0l-66.148 66.148c-5.858 5.857-5.858 15.355 0 21.213l32.654 32.655c-5.416 10.573-9.878 21.579-13.341 32.905h-47.104c-8.284 0-15 6.716-15 15v93.548c0 8.284 6.716 15 15 15h48.738c3.547 10.595 7.969 20.874 13.223 30.737l-34.823 34.822c-2.813 2.813-4.394 6.628-4.394 10.607 0 3.978 1.58 7.793 4.394 10.606l66.148 66.148c5.857 5.858 15.355 5.858 21.213 0l35.996-35.996c9.123 4.549 18.57 8.397 28.259 11.51v45.265c0 8.284 6.716 15 15 15h93.548c8.284 0 15-6.716 15-15v-45.15c10.495-3.351 20.709-7.565 30.543-12.603l37.301 37.3c5.856 5.857 15.354 5.858 21.213 0l66.149-66.148c2.813-2.813 4.394-6.628 4.394-10.607 0-3.978-1.58-7.793-4.394-10.606l-37.053-37.053c4.819-9.284 8.908-18.924 12.228-28.833h49.026c8.284 0 15-6.716 15-15v-93.548c0-8.283-6.716-14.999-15-14.999zm-15 93.548h-45.146c-6.768 0-12.696 4.531-14.474 11.061-4.075 14.974-10.176 29.34-18.133 42.699-3.513 5.898-2.573 13.428 2.281 18.282l34.45 34.45-44.937 44.935-34.649-34.649c-4.832-4.831-12.314-5.788-18.203-2.328-13.89 8.158-28.799 14.308-44.315 18.276-6.639 1.698-11.282 7.68-11.282 14.532v41.44h-63.548v-41.533c0-6.841-4.629-12.815-11.253-14.524-14.775-3.812-29.007-9.601-42.298-17.207-5.873-3.362-13.271-2.374-18.057 2.413l-33.254 33.253-44.936-44.935 32.312-32.31c4.899-4.899 5.806-12.515 2.193-18.427-8.443-13.82-14.88-28.748-19.13-44.367-1.776-6.53-7.706-11.062-14.474-11.062h-44.856v-63.548h43.546c6.926 0 12.951-4.742 14.58-11.474 3.942-16.301 10.273-31.941 18.815-46.485 3.46-5.89 2.503-13.373-2.327-18.203l-30.004-30.004 44.936-44.935 29.803 29.802c4.854 4.855 12.383 5.794 18.282 2.281 14.546-8.664 30.23-15.107 46.617-19.151 6.698-1.653 11.405-7.663 11.405-14.563v-46.401h63.548v47.276c0 6.793 4.565 12.739 11.129 14.492 15.9 4.248 31.086 10.754 45.137 19.338 5.912 3.611 13.528 2.705 18.427-2.194l33.49-33.49 44.936 44.935-34.434 34.434c-4.786 4.786-5.774 12.183-2.412 18.057 8.025 14.023 14.021 29.101 17.823 44.813 1.628 6.731 7.653 11.473 14.579 11.473h43.833z"/><path d="m142.404 236.42c3.081 4.825 9.663 8.186 16.273 6.409l26.568-6.712c8.032-2.029 12.898-10.185 10.869-18.217-1.742-6.896-8.005-11.446-14.823-11.313 16.242-24.174 43.84-39.583 74.093-39.583 38.881 0 72.994 24.844 84.888 61.82 2.537 7.886 10.982 12.225 18.872 9.687 7.887-2.537 12.224-10.986 9.687-18.872-15.897-49.426-61.488-82.635-113.446-82.635-43.021 0-82.044 23.314-103.021 59.266-4.705-5.953-13.242-7.507-19.793-3.352-6.996 4.437-9.07 13.706-4.633 20.701l14.398 22.701c.022.034.046.066.068.1z"/><path d="m369.514 275.613c-3.065-4.894-9.498-8.594-16.483-6.733l-26.568 6.711c-8.032 2.029-12.898 10.185-10.869 18.217 1.718 6.799 7.825 11.33 14.532 11.33.095 0 .191-.007.286-.009-16.243 24.17-43.839 39.575-74.088 39.575-38.88 0-72.993-24.844-84.888-61.82-2.537-7.886-10.987-12.225-18.873-9.686-7.886 2.537-12.223 10.986-9.686 18.873 15.898 49.426 61.489 82.634 113.446 82.634 43.021 0 82.044-23.314 103.021-59.265 4.705 5.953 13.243 7.506 19.793 3.352 6.996-4.438 9.07-13.706 4.633-20.701z"/></g></svg>